<?xml version="1.0" encoding="UTF-8" standalone="no"?>
<!-- Created with Inkscape (http://www.inkscape.org/) -->

<svg
   width="256"
   height="256"
   viewBox="0 0 67.733331 67.733331"
   version="1.1"
   id="svg5"
   inkscape:export-filename="/home/thomaf/projects/keymap/assets/ergodox.png"
   inkscape:export-xdpi="96"
   inkscape:export-ydpi="96"
   inkscape:version="1.1.2 (0a00cf5339, 2022-02-04)"
   sodipodi:docname="logos.svg"
   xmlns:inkscape="http://www.inkscape.org/namespaces/inkscape"
   xmlns:sodipodi="http://sodipodi.sourceforge.net/DTD/sodipodi-0.dtd"
   xmlns="http://www.w3.org/2000/svg"
   xmlns:svg="http://www.w3.org/2000/svg">
  <sodipodi:namedview
     id="namedview7"
     pagecolor="#ffffff"
     bordercolor="#666666"
     borderopacity="1.0"
     inkscape:pageshadow="2"
     inkscape:pageopacity="0.0"
     inkscape:pagecheckerboard="0"
     inkscape:document-units="px"
     showgrid="false"
     units="px"
     width="256px"
     inkscape:snap-object-midpoints="true"
     showguides="true"
     inkscape:guide-bbox="true"
     inkscape:zoom="1.3368415"
     inkscape:cx="249.84263"
     inkscape:cy="268.91744"
     inkscape:window-width="1914"
     inkscape:window-height="1138"
     inkscape:window-x="0"
     inkscape:window-y="26"
     inkscape:window-maximized="1"
     inkscape:current-layer="layer1">
    <sodipodi:guide
       position="33.866666,67.733331"
       orientation="-1,0"
       id="guide5001"
       inkscape:label=""
       inkscape:locked="false"
       inkscape:color="rgb(0,0,255)" />
    <sodipodi:guide
       position="0,33.866666"
       orientation="0,1"
       id="guide5003"
       inkscape:label=""
       inkscape:locked="false"
       inkscape:color="rgb(0,0,255)" />
  </sodipodi:namedview>
  <defs
     id="defs2" />
  <g
     inkscape:label="Layer 1"
     inkscape:groupmode="layer"
     id="layer1">
    <g
       id="g4207"
       transform="matrix(1.3221067,0,0,1.3221067,-387.57597,-107.81047)"
       inkscape:export-filename="/home/thomaf/projects/keymap/assets/g4207.png"
       inkscape:export-xdpi="96"
       inkscape:export-ydpi="96"
       style="display:none">
      <path
         style="display:inline;fill:#ffffff;fill-opacity:1;stroke-width:0.26481;stroke-miterlimit:4;stroke-dasharray:none"
         d="m 323.83745,123.04502 c -0.78343,-0.28949 -1.6905,-0.70069 -2.01573,-0.91379 -0.53419,-0.35001 -0.75194,-0.32256 -2.2541,0.28419 -2.23949,0.90457 -4.75161,0.80594 -6.86503,-0.26952 l -1.44678,-0.73623 -1.4226,0.44747 c -4.29744,1.35171 -8.42132,-1.94942 -9.73423,-7.79217 -1.4217,-6.32683 1.65,-12.23613 6.36042,-12.23613 1.38065,0 1.38706,-0.004 1.96662,-1.19682 0.31981,-0.658247 1.17858,-1.828174 1.90838,-2.599837 2.03918,-2.156129 4.6251,-3.075802 7.13499,-2.537531 l 1.37306,0.29447 1.57108,-1.71456 c 1.10799,-1.209167 2.09168,-1.970734 3.33723,-2.583638 1.56315,-0.769194 2.00995,-0.867585 3.88757,-0.856102 2.49048,0.01524 3.95537,0.565031 5.69644,2.13799 2.25609,2.038238 2.737,5.144333 1.40667,9.085398 l -0.70687,2.0941 0.67558,1.02087 c 3.07249,4.64285 3.9662,10.09466 2.23489,13.63333 -0.86712,1.77234 -2.37317,3.19017 -4.37539,4.11911 -1.26656,0.58763 -1.91834,0.70143 -4.39738,0.76781 -2.38589,0.0639 -3.16713,-0.0169 -4.33482,-0.44841 z"
         id="path5021"
         sodipodi:nodetypes="sssscsssssscssssscsssss"
         inkscape:label="path5021" />
      <path
         style="display:inline;fill:#fea1d7;stroke-width:0.264583"
         d="m 324.46811,123.47051 c -0.58209,-0.19246 -1.55478,-0.6052 -2.16155,-0.91721 l -1.10322,-0.56728 -1.27803,0.58725 c -0.99959,0.45931 -1.76802,0.58782 -3.527,0.58984 -2.02662,0.002 -2.39282,-0.0783 -3.70416,-0.81604 -1.39115,-0.78259 -1.49597,-0.80173 -2.38125,-0.43495 -0.50932,0.21102 -1.59326,0.39008 -2.40876,0.39791 -7.18069,0.069 -11.25613,-12.49063 -5.99318,-18.46965 1.31232,-1.49088 2.78442,-2.22445 4.47992,-2.23241 1.21651,-0.006 1.251,-0.0297 2.04773,-1.42221 0.88512,-1.547025 2.86068,-3.536392 4.28009,-4.309989 0.69945,-0.381209 1.49447,-0.495382 3.54732,-0.509429 l 2.64584,-0.0181 1.76811,-1.774513 c 2.32681,-2.335218 4.09984,-3.164351 6.83085,-3.194339 1.64873,-0.0181 2.25288,0.10368 3.57187,0.720022 1.84027,0.859927 3.11719,1.995519 3.92579,3.491288 0.83242,1.539835 0.77813,5.147482 -0.11347,7.53956 l -0.64062,1.71872 1.21627,2.02369 c 1.83109,3.04665 2.49482,5.34316 2.47448,8.56178 -0.014,2.22337 -0.11776,2.85707 -0.64958,3.96875 -0.89983,1.88095 -3.06969,3.92161 -4.94371,4.64936 -1.89411,0.73555 -6.22821,0.96532 -7.88374,0.41795 z m 5.68689,-2.57813 c 1.50419,-0.3226 3.26138,-1.5281 4.15045,-2.84739 0.76352,-1.133 1.2237,-3.42003 0.995,-4.9451 l -0.18243,-1.21651 -0.60842,1.49698 c -0.68126,1.67621 -1.23824,2.39006 -2.28867,2.93326 -2.46405,1.27421 -4.76698,-0.8959 -4.34294,-4.09247 0.25268,-1.90483 1.24816,-4.63118 2.62143,-7.17941 1.38134,-2.56319 2.56765,-5.889975 2.56765,-7.200485 0,-0.48921 -0.2679,-1.418191 -0.59532,-2.064404 -0.46184,-0.911505 -0.92157,-1.344446 -2.05052,-1.931024 -1.26402,-0.656762 -1.68647,-0.743458 -3.21544,-0.659877 -1.48324,0.08108 -1.97425,0.240814 -3.12026,1.015069 -1.49794,1.012024 -3.02097,2.86026 -4.08136,4.952839 -1.63678,3.230012 -2.65779,9.644872 -2.04973,12.877992 0.16201,0.86138 0.24485,1.61586 0.18411,1.6766 -0.20121,0.20121 -0.95441,-1.16707 -1.51131,-2.74548 -1.07809,-3.05562 -0.94251,-6.8381 0.39182,-10.93106 l 0.6134,-1.881537 -0.63305,-0.158885 c -2.77572,-0.696661 -5.70712,1.669505 -7.2594,5.859622 -0.8405,2.26881 -0.87031,7.99089 -0.0534,10.26203 0.30281,0.84193 0.43196,1.49124 0.287,1.44292 -0.14496,-0.0483 -0.71056,-0.82709 -1.25687,-1.73061 -1.31154,-2.16904 -1.92745,-4.72652 -1.80225,-7.48351 l 0.0973,-2.14272 -0.86547,0.14045 c -2.70646,0.4392 -4.25954,3.87584 -3.73197,8.25806 0.26804,2.22647 1.19483,4.26108 2.56517,5.63142 1.63922,1.63921 3.70627,1.7951 5.71625,0.43109 l 0.9652,-0.65501 0.94325,0.91607 c 1.23538,1.19979 2.93562,1.84471 4.35975,1.65369 0.60448,-0.0811 1.85606,-0.53165 2.78128,-1.00126 1.52782,-0.77548 1.72462,-0.81667 2.14422,-0.44878 1.92479,1.68753 5.28641,2.40634 8.26558,1.76743 z"
         id="path4221"
         sodipodi:nodetypes="sscscsssscssscssssscssssscsscsssssssssssssscsssssscsssscsssscc" />
      <path
         style="display:inline;fill:#fe72c4;stroke-width:0.264583"
         d="m 325.04979,123.55404 c -0.5532,-0.1394 -1.66119,-0.56349 -2.4622,-0.94242 l -1.45637,-0.68898 -1.34409,0.57821 c -2.63336,1.13285 -5.60529,0.91035 -7.69254,-0.5759 -0.70372,-0.50109 -0.79783,-0.5067 -1.79668,-0.10704 -1.60349,0.64159 -3.60528,0.54362 -5.20762,-0.25485 -1.77766,-0.88584 -3.082,-2.36683 -4.24921,-4.82462 -0.87426,-1.84095 -0.9575,-2.22909 -1.06168,-4.95091 -0.0845,-2.20699 -0.005,-3.32384 0.31313,-4.41935 0.96606,-3.32312 3.37175,-5.52577 6.17821,-5.65676 1.47845,-0.069 1.50731,-0.0859 2.08198,-1.2141 0.86859,-1.705317 2.52428,-3.448572 4.07903,-4.294775 1.58203,-0.861047 4.1915,-1.200444 5.56048,-0.723218 0.77955,0.271754 0.89283,0.236969 1.39621,-0.428731 1.1541,-1.526259 3.0274,-3.07976 4.62099,-3.832119 1.49886,-0.707636 1.86708,-0.773827 3.83646,-0.689647 1.7747,0.07586 2.46581,0.238707 3.72878,0.878636 3.89706,1.974586 4.95717,5.449941 3.22275,10.565194 l -0.63692,1.87845 0.61578,0.94401 c 3.48352,5.34033 4.15528,11.10444 1.71927,14.75239 -1.79779,2.69221 -4.39512,4.01402 -8.19098,4.16847 -1.23693,0.0503 -2.70158,-0.0225 -3.25478,-0.16194 z m 6.92461,-3.30319 c 1.66881,-0.91112 2.58164,-2.00966 3.09934,-3.72986 0.4077,-1.35466 0.46496,-3.36379 0.11979,-4.20321 l -0.21758,-0.52917 -0.18549,0.52917 c -0.57015,1.62649 -0.81918,2.12694 -1.4047,2.82278 -1.42085,1.68859 -3.31185,1.93692 -4.56794,0.59987 -0.50633,-0.53896 -0.64971,-1.02439 -0.73182,-2.47757 -0.13329,-2.35886 0.32718,-3.89038 2.44496,-8.13193 2.47578,-4.95857 3.00439,-7.187512 2.17521,-9.172022 -0.84359,-2.018985 -3.92398,-3.411281 -6.32243,-2.857653 -3.49541,0.806839 -6.43844,4.582739 -7.89567,10.130145 -0.68162,2.59476 -0.97933,7.74541 -0.53973,9.33752 0.44898,1.62609 0.12299,1.44649 -0.74436,-0.41007 -1.52148,-3.25671 -1.57899,-7.75967 -0.15339,-12.01025 0.34163,-1.018626 0.56573,-1.941723 0.49799,-2.051329 -0.0677,-0.109604 -0.71619,-0.199282 -1.44101,-0.199282 -5.70201,0 -8.99302,9.059141 -6.19959,17.065621 0.15378,0.44075 0.0879,0.41907 -0.39447,-0.12976 -1.67609,-1.90717 -2.77556,-5.63615 -2.5556,-8.66763 l 0.13918,-1.91823 h -0.73422 c -1.15008,0 -2.45875,1.04615 -3.24232,2.5919 -2.18258,4.30557 -0.39716,10.85643 3.41897,12.5445 1.26758,0.56073 2.47516,0.38075 4.1751,-0.62223 l 0.92293,-0.54455 0.97208,0.8535 c 2.12967,1.86987 4.09089,2.0627 6.85093,0.67358 l 1.80304,-0.90746 0.78005,0.55544 c 0.42902,0.3055 1.4477,0.83703 2.26371,1.18118 1.26601,0.53393 1.83298,0.61304 3.86491,0.53925 2.03887,-0.074 2.58555,-0.19803 3.80213,-0.86225 z"
         id="path4219"
         sodipodi:nodetypes="sscsssssscssssssssscssssssscsssssssssssssscscsssscsscssss" />
      <path
         style="display:inline;fill:#fe52b6;stroke-width:0.264583"
         d="m 324.9313,123.41834 c -0.76388,-0.2057 -1.87914,-0.62411 -2.47836,-0.92981 l -1.08947,-0.55581 -2.21171,0.71946 c -2.64428,0.86018 -3.9231,0.77912 -6.33435,-0.40149 -1.52175,-0.74509 -1.64566,-0.7642 -2.64583,-0.40798 -5.34293,1.90293 -10.44202,-3.39802 -10.44202,-10.85541 0,-4.78761 2.07581,-8.21368 5.52564,-9.11994 0.63801,-0.16761 1.4306,-0.23682 1.76132,-0.15381 0.51288,0.12872 0.72376,-0.066 1.43389,-1.32433 2.14319,-3.797526 6.01474,-5.841819 9.3299,-4.926461 l 0.98242,0.271259 2.05894,-2.05277 c 2.62628,-2.618417 4.20477,-3.300765 7.24372,-3.131304 3.81385,0.212669 6.67749,2.494782 7.38064,5.881843 0.33839,1.629987 0.11994,3.27002 -0.78316,5.879583 l -0.56026,1.61892 1.06103,1.64162 c 1.97315,3.05284 2.7851,6.00395 2.61733,9.51291 -0.1244,2.60193 -0.67859,3.97104 -2.28911,5.65521 -2.49035,2.60421 -6.78803,3.69416 -10.56056,2.67831 z m 6.05293,-2.64127 c 1.5493,-0.5279 3.02021,-1.76098 3.70737,-3.10791 0.61296,-1.20152 0.92004,-3.60407 0.6468,-5.06056 -0.19037,-1.01476 -0.68383,-1.31396 -0.68383,-0.41461 0,0.83499 -0.74959,2.42963 -1.52035,3.23432 -1.46708,1.53166 -3.8107,1.38222 -4.67979,-0.29842 -0.99423,-1.92262 -0.32305,-5.09096 2.08603,-9.84729 1.93147,-3.81337 2.52661,-5.586045 2.52661,-7.525798 0,-2.198145 -1.55256,-3.9707 -4.07212,-4.649147 -4.24813,-1.143902 -8.49555,2.870462 -10.52734,9.949705 -0.51366,1.78973 -0.60801,2.74059 -0.61079,6.15598 -0.004,4.46412 -0.19447,4.69051 -1.20256,1.42669 -0.79219,-2.56482 -0.72215,-6.44304 0.17106,-9.4713 0.38037,-1.289583 0.74705,-2.536276 0.81485,-2.770427 0.17326,-0.598339 -1.24145,-0.839242 -2.72891,-0.464693 -2.32021,0.584235 -4.52494,3.24951 -5.55159,6.71125 -0.67138,2.26383 -0.62131,6.82923 0.0994,9.06198 0.29357,0.90951 0.49913,1.65365 0.4568,1.65365 -0.25497,0 -1.80668,-2.80467 -2.28075,-4.1224 -0.42763,-1.18863 -0.56875,-2.21985 -0.58545,-4.27812 l -0.022,-2.71198 h -0.86172 c -1.11122,0 -2.48812,1.18816 -3.30955,2.8559 -0.52189,1.05959 -0.61102,1.63941 -0.59807,3.89097 0.0186,3.23364 0.63239,5.02734 2.38889,6.981 1.86742,2.07702 3.43373,2.31742 5.89033,0.90406 l 1.15068,-0.66203 0.83369,0.80685 c 2.12184,2.05351 5.23934,2.15447 7.9113,0.25622 0.72393,-0.51431 0.7315,-0.51415 1.49786,0.0316 1.86347,1.3269 3.51144,1.86354 5.73105,1.86623 1.22853,0.002 2.63963,-0.16913 3.32211,-0.40167 z"
         id="path4217"
         sodipodi:nodetypes="sscsssssscscsssscsssssssssssssscssssssssscssssscssccss" />
      <path
         style="display:inline;fill:#9e9e9e;stroke-width:0.264583"
         d="m 323.83745,123.04512 c -0.78343,-0.28949 -1.6905,-0.70069 -2.01573,-0.91379 -0.53419,-0.35001 -0.75194,-0.32256 -2.2541,0.28419 -2.23949,0.90457 -4.75161,0.80594 -6.86503,-0.26952 l -1.44678,-0.73623 -1.4226,0.44747 c -4.29744,1.35171 -8.42132,-1.94942 -9.73423,-7.79217 -1.4217,-6.32683 1.65,-12.23613 6.36042,-12.23613 1.38065,0 1.38706,-0.004 1.96662,-1.19682 0.31981,-0.658247 1.17858,-1.828174 1.90838,-2.599836 2.03918,-2.156129 4.6251,-3.075803 7.13499,-2.537532 l 1.37306,0.294471 1.57108,-1.714561 c 1.10799,-1.209167 2.09168,-1.970733 3.33723,-2.583638 1.56315,-0.769194 2.00995,-0.867584 3.88757,-0.856101 2.49048,0.01524 3.95537,0.565031 5.69644,2.137989 2.25609,2.038239 2.737,5.144334 1.40667,9.085408 l -0.70687,2.09409 0.67558,1.02087 c 3.07249,4.64285 3.9662,10.09467 2.23489,13.63333 -0.86712,1.77234 -2.37317,3.19017 -4.37539,4.11911 -1.26656,0.58763 -1.91834,0.70143 -4.39738,0.76781 -2.38589,0.0639 -3.16713,-0.0169 -4.33482,-0.44841 z m 7.62887,-2.41249 c 1.58802,-0.68315 3.323,-2.51345 3.7128,-3.91677 0.14644,-0.52717 0.26691,-1.6929 0.26772,-2.5905 0.002,-2.75745 -0.48464,-3.27904 -1.03972,-1.11324 -0.24076,0.93943 -0.66239,1.67071 -1.37293,2.38125 -0.89009,0.89008 -1.18422,1.02545 -2.22811,1.02545 -3.57675,0 -3.62565,-4.27136 -0.12947,-11.31102 2.07163,-4.17129 2.38694,-5.140954 2.38898,-7.34683 0.002,-2.056398 -0.75292,-3.236508 -2.68641,-4.20001 -3.46775,-1.728052 -7.1798,-0.107682 -9.85971,4.303919 -2.32301,3.824091 -3.67165,11.547361 -2.63244,15.075271 0.0706,0.23978 -0.16469,-0.10302 -0.52293,-0.76178 -1.51923,-2.79367 -1.6173,-7.62178 -0.23855,-11.74392 l 0.7751,-2.317354 -0.6361,-0.241845 c -1.05291,-0.400317 -2.01284,-0.277932 -3.45435,0.440407 -3.26829,1.628659 -5.38135,6.650952 -4.99988,11.883652 0.0849,1.16516 0.32699,2.6838 0.53789,3.37477 0.46678,1.52933 0.1188,1.39462 -0.73063,-0.28284 -1.06633,-2.10581 -1.47968,-3.94561 -1.47968,-6.58604 0,-2.91501 -0.18175,-3.10846 -2.02741,-2.15796 -1.82171,0.93815 -2.79858,2.80713 -2.9472,5.63867 -0.20419,3.89044 1.21528,7.39049 3.6143,8.9119 1.72013,1.09088 3.1322,0.98805 5.13784,-0.37414 l 0.73483,-0.49908 0.98497,0.95948 c 0.61743,0.60146 1.50327,1.11074 2.37402,1.36485 1.26253,0.36844 1.52559,0.36568 2.88782,-0.0303 0.82431,-0.23963 1.91309,-0.71725 2.41952,-1.06138 l 0.92077,-0.62568 0.92202,0.70326 c 0.50711,0.38679 1.71028,0.9797 2.67371,1.31757 2.13772,0.74969 4.56679,0.66923 6.63323,-0.21973 z"
         id="path4215"
         sodipodi:nodetypes="sssscsssssscssssscssssssscsssscssssscsssssssssscsssscssss" />
      <path
         style="display:inline;fill:#fe0295;stroke-width:0.264583"
         d="m 323.83745,123.04502 c -0.78343,-0.28949 -1.6905,-0.70069 -2.01573,-0.91379 -0.53419,-0.35001 -0.75194,-0.32256 -2.2541,0.28419 -2.23949,0.90457 -4.75161,0.80594 -6.86503,-0.26952 l -1.44678,-0.73623 -1.4226,0.44747 c -4.29744,1.35171 -8.42132,-1.94942 -9.73423,-7.79217 -1.4217,-6.32683 1.65,-12.23613 6.36042,-12.23613 1.38065,0 1.38706,-0.004 1.96662,-1.19682 0.31981,-0.658247 1.17858,-1.828174 1.90838,-2.599837 2.03918,-2.156129 4.6251,-3.075802 7.13499,-2.537531 l 1.37306,0.29447 1.57108,-1.71456 c 1.10799,-1.209167 2.09168,-1.970734 3.33723,-2.583638 1.56315,-0.769194 2.00995,-0.867585 3.88757,-0.856102 2.49048,0.01524 3.95537,0.565031 5.69644,2.13799 2.25609,2.038238 2.737,5.144333 1.40667,9.085398 l -0.70687,2.0941 0.67558,1.02087 c 3.07249,4.64285 3.9662,10.09466 2.23489,13.63333 -0.86712,1.77234 -2.37317,3.19017 -4.37539,4.11911 -1.26656,0.58763 -1.91834,0.70143 -4.39738,0.76781 -2.38589,0.0639 -3.16713,-0.0169 -4.33482,-0.44841 z m 7.62887,-2.41249 c 1.58802,-0.68315 3.323,-2.51345 3.7128,-3.91677 0.14644,-0.52717 0.26691,-1.6929 0.26772,-2.5905 0.002,-2.75745 -0.48464,-3.27904 -1.03972,-1.11324 -0.24076,0.93943 -0.66239,1.67071 -1.37293,2.38125 -0.89009,0.89008 -1.18422,1.02545 -2.22811,1.02545 -3.57675,0 -3.62565,-4.27136 -0.12947,-11.31102 2.07163,-4.17129 2.38694,-5.140955 2.38898,-7.346831 0.002,-2.056397 -0.75292,-3.236508 -2.68641,-4.200009 -3.46775,-1.728052 -7.1798,-0.107683 -9.85971,4.303919 -2.32301,3.824091 -3.67165,11.547361 -2.63244,15.075271 0.0706,0.23978 -0.16469,-0.10302 -0.52293,-0.76178 -1.51923,-2.79367 -1.6173,-7.62178 -0.23855,-11.74392 l 0.7751,-2.317355 -0.6361,-0.241845 c -1.05291,-0.400317 -2.01284,-0.277931 -3.45435,0.440407 -3.26829,1.628659 -5.38135,6.650953 -4.99988,11.883653 0.0849,1.16516 0.32699,2.6838 0.53789,3.37477 0.46678,1.52933 0.1188,1.39462 -0.73063,-0.28284 -1.06633,-2.10571 -1.47968,-3.94551 -1.47968,-6.58594 0,-2.91501 -0.18175,-3.10846 -2.02741,-2.15796 -1.82171,0.93815 -2.79858,2.80713 -2.9472,5.63867 -0.20419,3.89044 1.21528,7.39049 3.6143,8.9119 1.72013,1.09088 3.1322,0.98805 5.13784,-0.37414 l 0.73483,-0.49908 0.98497,0.95948 c 0.61743,0.60146 1.50327,1.11074 2.37402,1.36485 1.26253,0.36844 1.52559,0.36568 2.88782,-0.0303 0.82431,-0.23963 1.91309,-0.71725 2.41952,-1.06138 l 0.92077,-0.62568 0.92202,0.70326 c 0.50711,0.38679 1.71028,0.9797 2.67371,1.31757 2.13772,0.74969 4.56679,0.66923 6.63323,-0.21973 z"
         id="path4213"
         sodipodi:nodetypes="sssscsssssscssssscssssscscsssscssssscsssssssssscsssscsscc" />
    </g>
    <g
       id="g6237"
       transform="translate(-99.255922,-47.089227)"
       style="fill:#000000;fill-opacity:1;stroke:#ffffff;stroke-width:4.23333;stroke-miterlimit:4;stroke-dasharray:none;stroke-opacity:1;paint-order:markers stroke fill">
      <path
         style="fill:#000000;fill-opacity:1;stroke:#ffffff;stroke-width:4.23333;stroke-miterlimit:4;stroke-dasharray:none;stroke-opacity:1;paint-order:markers stroke fill"
         d="M 106.28804,80.843651 V 67.447504 h 1.95675 1.95674 v 13.396147 13.396148 h -1.95674 -1.95675 z m 26.7923,0 V 67.447504 h 13.39615 13.39614 v 1.95674 1.956741 h -11.28888 -11.28889 v 9.482666 9.482666 h 11.28889 11.28888 v 1.956741 1.956741 h -13.39614 -13.39615 z m -13.24563,6.773333 v -1.806222 h 1.95674 1.95674 v 1.806222 1.806222 h -1.95674 -1.95674 z m 0,-13.546666 v -1.806222 h 1.95674 1.95674 v 1.806222 1.806222 h -1.95674 -1.95674 z"
         id="path6241" />
      <path
         style="fill:#000000;fill-opacity:1;stroke:#ffffff;stroke-width:4.23333;stroke-miterlimit:4;stroke-dasharray:none;stroke-opacity:1;paint-order:markers stroke fill"
         d="M 106.28804,80.843651 V 67.447504 h 1.95675 1.95674 v 13.396147 13.396148 h -1.95674 -1.95675 z m 26.7923,0 V 67.447504 h 13.39615 13.39614 v 1.95674 1.956741 h -11.4394 -11.43941 v 9.482666 9.482666 h 11.43941 11.4394 v 1.956741 1.956741 h -13.39614 -13.39615 z m -13.18539,6.848592 0.0903,-1.730963 1.73096,-0.09028 1.73096,-0.09028 v 1.821247 1.821244 h -1.82124 -1.82125 z m 0.2408,-13.621925 v -1.806222 h 1.6557 1.6557 v 1.806222 1.806222 h -1.6557 -1.6557 z"
         id="path6239" />
    </g>
  </g>
</svg>
